<svg xmlns="http://www.w3.org/2000/svg" viewBox="0 0 100 125">
  <switch>
    <g>
      <path d="M50 2.5C23.8 2.5 2.5 23.8 2.5 50S23.8 97.5 50 97.5 97.5 76.2 97.5 50 76.2 2.5 50 2.5zm0 86c-21.2 0-38.5-17.3-38.5-38.5S28.8 11.5 50 11.5 88.5 28.8 88.5 50 71.2 88.5 50 88.5z"/>
      <path d="M20.1 53.5c-.8 0-1.4.7-1.3 1.5.8 5 2.8 9.6 5.6 13.6.5.6 1.4.7 1.9.1l15.2-15.2H20.1zM45.1 18.9c-5 .8-9.6 2.8-13.6 5.6-.6.5-.7 1.4-.1 1.9l15.2 15.2V20.1c-.1-.7-.8-1.4-1.5-1.2zM20.1 46.5h21.4L26.4 31.4c-.5-.5-1.5-.5-1.9.1-2.9 3.9-4.8 8.6-5.6 13.6-.2.7.5 1.4 1.2 1.4zM68.5 24.5c-3.9-2.9-8.6-4.8-13.6-5.6-.8-.1-1.5.5-1.5 1.3v21.4l15.2-15.2c.6-.5.5-1.4-.1-1.9zM60.3 45.7c.2.4.6.8 1.2.8h18.4c.2 0 .4 0 .5-.1.1-.1.3-.2.4-.3h.1c.2-.3.4-.6.3-1-.2-1.1-.4-2.3-.7-3.4v-.2c-.2-.7-.5-1.4-.7-2.2-.2-.5-.3-.9-.5-1.4-.2-.5-.5-.9-.7-1.4-.3-.7-.6-1.3-1-2-.1-.1-.1-.2-.2-.3-.5-.9-1.1-1.9-1.8-2.8-.2-.3-.6-.5-.9-.5-.3 0-.5.1-.8.3-.1 0-.2 0-.2.1l-13 13c-.5.5-.6 1-.4 1.4zM31.5 75.5c3.9 2.9 8.6 4.8 13.6 5.6.8.1 1.5-.5 1.5-1.3V58.4L31.4 73.6c-.6.5-.5 1.4.1 1.9zM79.9 53.5H58.4l15.2 15.2c.5.5 1.5.5 1.9-.1 3-4.1 4.9-8.8 5.6-13.6.1-.8-.5-1.5-1.2-1.5zM53.5 58.4v21.4c0 .8.7 1.4 1.4 1.3 4.8-.8 9.5-2.6 13.6-5.6.6-.5.7-1.4.1-1.9L53.5 58.4z"/>
    </g>
  </switch>
</svg>
